<?xml version="1.0" encoding="UTF-8" standalone="no"?>
<!DOCTYPE svg PUBLIC "-//W3C//DTD SVG 1.1//EN"
 "http://www.w3.org/Graphics/SVG/1.1/DTD/svg11.dtd">
<!-- Generated by graphviz version 2.43.0 (0)
 -->
<!-- Title: G Pages: 1 -->
<svg width="406pt" height="292pt"
 viewBox="0.00 0.00 406.00 292.00" xmlns="http://www.w3.org/2000/svg" xmlns:xlink="http://www.w3.org/1999/xlink">
<g id="graph0" class="graph" transform="scale(1 1) rotate(0) translate(4 288)">
<title>G</title>
<polygon fill="white" stroke="transparent" points="-4,4 -4,-288 402,-288 402,4 -4,4"/>
<g id="clust1" class="cluster">
<title>cluster_</title>
<polygon fill="none" stroke="black" points="8,-8 8,-276 390,-276 390,-8 8,-8"/>
<text text-anchor="start" x="126" y="-253" font-family="sans-serif" font-weight="bold" font-size="20.00" fill="#000000">Category</text>
<text text-anchor="start" x="125.81" y="-232.4" font-family="sans-serif" font-size="12.00" fill="#333333">This is some text right here </text>
</g>
<g id="clust2" class="cluster">
<title>cluster_</title>
<polygon fill="none" stroke="black" points="170,-112 170,-214 382,-214 382,-112 170,-112"/>
<text text-anchor="start" x="214.85" y="-191" font-family="sans-serif" font-weight="bold" font-size="20.00" fill="#000000">Sub Category</text>
</g>
<!-- node_1 -->
<g id="node1" class="node">
<title>node_1</title>
<polygon fill="none" stroke="#0a05cc" points="29.5,-16.5 29.5,-83.5 236.5,-83.5 236.5,-16.5 29.5,-16.5"/>
<text text-anchor="start" x="42" y="-64" font-family="sans-serif" font-weight="bold" font-size="15.00" fill="#0a05cc">Test</text>
<text text-anchor="start" x="41.81" y="-44.4" font-family="sans-serif" font-size="12.00" fill="#0a05aa">This is some text for test more text</text>
<text text-anchor="start" x="42" y="-26.4" font-family="sans-serif" font-size="12.00" fill="#0a05aa"> More content after line break.</text>
</g>
<!-- node_2 -->
<g id="node2" class="node">
<title>node_2</title>
<polygon fill="none" stroke="#000000" points="106,-127 106,-163 160,-163 160,-127 106,-127"/>
<text text-anchor="start" x="120.58" y="-141" font-family="sans-serif" font-weight="bold" font-size="15.00" fill="#000000">Foo</text>
</g>
<!-- node_2&#45;&gt;node_1 -->
<g id="edge2" class="edge">
<title>node_2&#45;&gt;node_1</title>
<path fill="none" stroke="black" d="M133,-126.94C133,-117.61 133,-105.6 133,-93.89"/>
<polygon fill="black" stroke="black" points="136.5,-93.76 133,-83.76 129.5,-93.76 136.5,-93.76"/>
</g>
<!-- node_3 -->
<g id="node3" class="node">
<title>node_3</title>
<polygon fill="none" stroke="#686868" points="16.5,-120.5 16.5,-169.5 87.5,-169.5 87.5,-120.5 16.5,-120.5"/>
<text text-anchor="start" x="28.74" y="-150" font-family="sans-serif" font-weight="bold" font-size="15.00" fill="#686868">Foobar</text>
<text text-anchor="start" x="29" y="-130.4" font-family="sans-serif" font-size="12.00" fill="#a0a0a0">done</text>
</g>
<!-- node_3&#45;&gt;node_1 -->
<g id="edge3" class="edge">
<title>node_3&#45;&gt;node_1</title>
<path fill="none" stroke="black" d="M72.86,-120.05C80.48,-111.3 89.32,-101.15 97.84,-91.36"/>
<polygon fill="black" stroke="black" points="100.65,-93.47 104.58,-83.63 95.37,-88.87 100.65,-93.47"/>
</g>
<!-- node_4 -->
<g id="node4" class="node">
<title>node_4</title>
<polygon fill="none" stroke="#cc050a" points="178,-120.5 178,-169.5 374,-169.5 374,-120.5 178,-120.5"/>
<text text-anchor="start" x="190" y="-150" font-family="sans-serif" font-weight="bold" font-size="15.00" fill="#cc050a">Ahh</text>
<text text-anchor="start" x="189.8" y="-130.4" font-family="sans-serif" font-size="12.00" fill="#aa050a">oh no, I&#39;m blocked on something</text>
</g>
<!-- node_4&#45;&gt;node_1 -->
<g id="edge1" class="edge">
<title>node_4&#45;&gt;node_1</title>
<path fill="none" stroke="black" d="M239.55,-120.29C224.96,-110.81 207.79,-99.64 191.54,-89.07"/>
<polygon fill="black" stroke="black" points="193.44,-86.13 183.15,-83.61 189.62,-92 193.44,-86.13"/>
</g>
</g>
</svg>
